<?xml version="1.0" encoding="UTF-8" standalone="no"?>
<!-- Created with Fritzing (http://www.fritzing.org/) -->

<svg
   xmlns:dc="http://purl.org/dc/elements/1.1/"
   xmlns:cc="http://creativecommons.org/ns#"
   xmlns:rdf="http://www.w3.org/1999/02/22-rdf-syntax-ns#"
   xmlns:svg="http://www.w3.org/2000/svg"
   xmlns="http://www.w3.org/2000/svg"
   xmlns:sodipodi="http://sodipodi.sourceforge.net/DTD/sodipodi-0.dtd"
   xmlns:inkscape="http://www.inkscape.org/namespaces/inkscape"
   version="1.2"
   x="0in"
   y="0in"
   width="0.4in"
   height="0.33in"
   viewBox="0 0 28.8 23.76"
   id="svg3815"
   sodipodi:docname="lcd_i2c_bb.svg"
   inkscape:version="0.92.3 (2405546, 2018-03-11)">
  <metadata
     id="metadata3821">
    <rdf:RDF>
      <cc:Work
         rdf:about="">
        <dc:format>image/svg+xml</dc:format>
        <dc:type
           rdf:resource="http://purl.org/dc/dcmitype/StillImage" />
        <dc:title></dc:title>
      </cc:Work>
    </rdf:RDF>
  </metadata>
  <defs
     id="defs3819" />
  <sodipodi:namedview
     pagecolor="#ffffff"
     bordercolor="#666666"
     borderopacity="1"
     objecttolerance="10"
     gridtolerance="10"
     guidetolerance="10"
     inkscape:pageopacity="0"
     inkscape:pageshadow="2"
     inkscape:window-width="1430"
     inkscape:window-height="1062"
     id="namedview3817"
     showgrid="false"
     inkscape:zoom="2"
     inkscape:cx="19.2"
     inkscape:cy="15.840001"
     inkscape:window-x="235"
     inkscape:window-y="101"
     inkscape:window-maximized="0"
     inkscape:current-layer="g3813" />
  <g
     partID="854143670"
     id="g3813">
    <rect
       style="fill:#303030"
       x="0"
       width="28.799999"
       height="19.440001"
       y="2.1600001"
       id="middle" />
    <rect
       style="fill:#3d3d3d"
       x="0"
       width="28.799999"
       height="1.7711999"
       y="2.1600001"
       id="top" />
    <rect
       style="fill:#000000"
       x="0"
       width="28.799999"
       height="1.7711999"
       y="19.8288"
       id="bottom" />
    <polygon
       style="fill:#141414"
       points="28.26,19.8288 28.8,21.6 28.8,2.16 28.26,3.9312 "
       id="right" />
    <polygon
       style="fill:#1f1f1f"
       points="0.54,19.8288 0,21.6 0,2.16 0.54,3.9312 "
       id="left" />
    <polygon
       style="fill:#1c1c1c"
       points="0.4032,9.7776 0.4032,11.88 3.6,11.88 3.6,8.28 0.54,8.2512 "
       id="left-upper-rect" />
    <polygon
       style="fill:#383838"
       points="3.6,11.88 0.4032,11.88 0.4032,13.9824 0.54,15.516 3.6,15.516 "
       id="left-lower-rect" />
    <path
       style="fill:#262626"
       inkscape:connector-curvature="0"
       d="m 0.4032,9.7776 v 4.1976 C 1.4616,13.8528 2.2896,12.9672 2.2896,11.8728 2.2896,10.7784 1.4688,9.9 0.4032,9.7776 Z"
       id="slot" />
    <path
       style="fill:#303030"
       inkscape:connector-curvature="0"
       d="M 0.54,3.9312 V 8.244 c 1.7136,0.324 3.0168,1.8216 3.0168,3.6288 0,1.8072 -1.296,3.312 -3.0168,3.636 v 0.0072 h 3.6 V 3.9312 Z"
       id="cover" />
    <circle
       style="fill:#212121"
       id="circle3777"
       r="1.4832"
       cx="4.6799998"
       cy="16.898399" />
    <rect
       style="fill:#8c8c8c"
       x="2.52"
       width="2.1600001"
       height="3.1248"
       y="20.635201"
       id="connector0pin" />
    <g
       style="fill:#8c8c8c"
       x="2.52"
       width="2.16"
       height="2.16"
       y="21.6"
       id="connector0terminal" />
    <polygon
       style="fill:#8c8c8c"
       id="polygon3782"
       points="4.68,22.0752 6.12,21.4128 6.12,20.6352 2.52,20.6352 2.52,22.0752 " />
    <rect
       style="fill:#8c8c8c"
       x="24.120001"
       width="2.1600001"
       height="3.1248"
       y="20.635201"
       id="connector3pin" />
    <g
       style="fill:#8c8c8c"
       x="24.12"
       width="2.16"
       height="2.16"
       y="21.6"
       id="connector3terminal" />
    <polygon
       style="fill:#8c8c8c"
       id="polygon3790"
       points="24.12,22.0752 26.28,22.0752 26.28,20.6352 22.68,20.6352 22.68,21.4128 " />
    <rect
       style="fill:#8c8c8c"
       x="24.120001"
       width="2.1600001"
       height="3.1248"
       y="0"
       id="connector4pin" />
    <g
       style="fill:#8c8c8c"
       x="24.12"
       width="2.16"
       height="2.16"
       y="0"
       id="connector4terminal" />
    <polygon
       style="fill:#8c8c8c"
       id="polygon3794"
       points="24.12,1.6848 22.68,2.3472 22.68,3.1248 26.28,3.1248 26.28,1.6848 " />
    <rect
       style="fill:#8c8c8c"
       x="16.92"
       width="2.1600001"
       height="3.1248"
       y="0"
       id="connector5pin" />
    <g
       style="fill:#8c8c8c"
       x="16.92"
       width="2.16"
       height="2.16"
       id="connector5terminal" />
    <polygon
       style="fill:#8c8c8c"
       id="polygon3802"
       points="19.08,1.6848 16.92,1.6848 15.48,2.3472 15.48,3.1248 20.52,3.1248 20.52,2.3472 " />
    <rect
       style="fill:#8c8c8c"
       x="9.7200003"
       width="2.1600001"
       height="3.1248"
       y="20.635201"
       id="connector1pin" />
    <g
       style="fill:#8c8c8c"
       x="9.72"
       width="2.16"
       height="2.16"
       y="21.6"
       id="connector1terminal" />
    <polygon
       style="fill:#8c8c8c"
       id="polygon3806"
       points="9.72,22.0752 11.88,22.0752 13.32,21.4128 13.32,20.6352 8.28,20.6352 8.28,21.4128 " />
    <rect
       style="fill:#8c8c8c"
       x="16.92"
       width="2.1600001"
       height="3.1248"
       y="20.635201"
       id="connector2pin" />
    <g
       style="fill:#8c8c8c"
       x="16.92"
       width="2.16"
       height="2.16"
       y="21.6"
       id="connector2terminal" />
    <polygon
       style="fill:#8c8c8c"
       id="polygon3810"
       points="16.92,22.0752 19.08,22.0752 20.52,21.4128 20.52,20.6352 15.48,20.6352 15.48,21.4128 " />
    <text
       xml:space="preserve"
       style="font-style:normal;font-weight:normal;font-size:30px;line-height:1.25;font-family:sans-serif;letter-spacing:0px;word-spacing:0px;fill:#000000;fill-opacity:1;stroke:none;stroke-width:0.75"
       x="0.9750002"
       y="13.53"
       id="text3860"><tspan
         sodipodi:role="line"
         id="tspan3858"
         x="0.9750002"
         y="13.53"
         style="font-size:5.99999985px;fill:#ffffff;stroke-width:0.75">LCD I2C</tspan></text>
  </g>
</svg>
